<?xml version="1.0" encoding="utf-8"?>
<!-- Generator: Adobe Illustrator 15.0.0, SVG Export Plug-In . SVG Version: 6.00 Build 0)  -->
<!DOCTYPE svg PUBLIC "-//W3C//DTD SVG 1.1//EN" "http://www.w3.org/Graphics/SVG/1.1/DTD/svg11.dtd">
<svg version="1.1" id="Шар_1" xmlns="http://www.w3.org/2000/svg" xmlns:xlink="http://www.w3.org/1999/xlink" x="0px" y="0px"
	 width="37.32px" height="225.5px" viewBox="0 0 37.32 225.5" enable-background="new 0 0 37.32 225.5" xml:space="preserve">
<path fill="#018BBD" d="M29.815,116.285c0,7.828-6.347,14.173-14.175,14.173c-7.829,0-14.172-6.345-14.172-14.173
	c0-7.829,6.343-14.173,14.172-14.173C23.469,102.111,29.815,108.456,29.815,116.285"/>
<rect x="6.085" y="12.835" transform="matrix(-0.7071 0.7071 -0.7071 -0.7071 49.8465 9.0207)" fill="#018BBD" width="33.94" height="3.997"/>
<polygon fill="#018BBD" points="12.469,28.245 0.469,16.247 3.299,13.423 15.299,25.419 "/>
<rect x="5.616" y="65.964" transform="matrix(-0.7071 0.7071 -0.7071 -0.7071 86.6118 100.0511)" fill="#BCC0C5" width="33.94" height="3.997"/>
<polygon fill="#BCC0C5" points="12,81.374 0,69.376 2.83,66.552 14.83,78.548 "/>
<path fill="#BCC0C5" d="M29.347,163.785c0,7.829-6.347,14.173-14.175,14.173C7.343,177.958,1,171.613,1,163.785
	c0-7.828,6.343-14.173,14.172-14.173C23,149.611,29.347,155.957,29.347,163.785"/>
</svg>
