<?xml version="1.0" encoding="utf-8"?>
<!-- Generator: Adobe Illustrator 15.0.0, SVG Export Plug-In . SVG Version: 6.00 Build 0)  -->
<!DOCTYPE svg PUBLIC "-//W3C//DTD SVG 1.1//EN" "http://www.w3.org/Graphics/SVG/1.1/DTD/svg11.dtd">
<svg version="1.1" id="Шар_1" xmlns="http://www.w3.org/2000/svg" xmlns:xlink="http://www.w3.org/1999/xlink" x="0px" y="0px"
	 width="62px" height="3550px" viewBox="0 0 62 3550" enable-background="new 0 0 62 3550" xml:space="preserve">
<rect x="14" y="20" fill="#FFFFFF" width="34" height="6"/>
<rect x="14" y="29" fill="#FFFFFF" width="34" height="6"/>
<rect x="14" y="38" fill="#FFFFFF" width="34" height="6"/>
<path fill="#FFFFFF" d="M20,23c0,1.657-1.343,3-3,3s-3-1.343-3-3s1.343-3,3-3S20,21.343,20,23"/>
<path fill="#FFFFFF" d="M20,32c0,1.656-1.343,3-3,3s-3-1.344-3-3c0-1.657,1.343-3,3-3S20,30.343,20,32"/>
<path fill="#FFFFFF" d="M20,41c0,1.656-1.343,3-3,3s-3-1.344-3-3c0-1.656,1.343-3,3-3S20,39.344,20,41"/>
<rect x="14" y="122" fill="#FFFFFF" width="34" height="6"/>
<path fill="#FFFFFF" d="M20,125c0,1.657-1.342,3-3,3c-1.657,0-3-1.343-3-3c0-1.657,1.343-3,3-3C18.658,122,20,123.344,20,125"/>
<path fill="#FFFFFF" d="M14,119h1c-0.338,0-0.668-0.029-1-0.051V119z"/>
<rect x="14.192" y="103.774" transform="matrix(-0.7071 0.7071 -0.7071 -0.7071 119.0892 161.0497)" fill="#FFFFFF" width="24" height="2.828"/>
<rect x="9.464" y="108.017" transform="matrix(0.7071 0.7071 -0.7071 0.7071 81.9034 21.1133)" fill="#FFFFFF" width="12" height="2.828"/>
<path fill="#FFFFFF" d="M37.999,104c0,2.135-0.452,4.162-1.256,6H48v-6H37.999z"/>
<path fill="#FFFFFF" d="M34.979,113c-2.737,3.637-7.077,6-11.979,6h25v-6H34.979z"/>
<path fill="#FFFFFF" d="M14,445h1c-0.338,0-0.668-0.029-1-0.051V445z"/>
<rect x="18.617" y="440.001" transform="matrix(-0.7071 0.7071 -0.7071 -0.7071 373.2793 729.3916)" fill="#FFFFFF" width="33.94" height="3.998"/>
<polygon fill="#FFFFFF" points="25,455.412 13,443.414 15.83,440.59 27.83,452.586 "/>
<polygon fill="#FFFFFF" points="34.691,196.474 32.257,197.508 32.257,183.75 30.257,183.75 30.257,197.508 27.823,196.474 
	31.257,204.614 "/>
<path fill="#FFFFFF" d="M41.432,190.978h-3.204v2.545h3.204c0.363,0,0.659,0.296,0.659,0.659v20.864
	c0,0.363-0.296,0.659-0.659,0.659H20.568c-0.364,0-0.659-0.296-0.659-0.659v-20.864c0-0.363,0.295-0.659,0.659-0.659h3.204v-2.545
	h-3.204c-1.768,0-3.205,1.437-3.205,3.204v20.864c0,1.767,1.437,3.204,3.205,3.204h20.863c1.768,0,3.205-1.437,3.205-3.204v-20.864
	C44.637,192.415,43.2,190.978,41.432,190.978"/>
<path fill="#FFFFFF" d="M45.541,273.552c-1.608-2.852-1.85-2.672-1.85-2.672c-3.12,1.029-4.761,1.13-4.761,1.13l0.007,0.011
	c-1-0.818-2.123-1.484-3.338-1.967h0.088c0,0-0.727-1.494-1.4-4.753c0,0,0.032-0.301-3.203-0.301c-3.24,0-3.206,0.301-3.206,0.301
	c-0.614,2.984-1.274,4.484-1.381,4.717c-0.078,0.031-0.159,0.058-0.236,0.09c-1.08,0.444-2.083,1.04-2.991,1.755l0.011-0.019
	c0,0-1.636-0.138-4.736-1.234c0,0-0.238-0.186-1.907,2.631c-1.669,2.816-1.397,2.941-1.397,2.941
	c2.41,2.263,3.296,3.666,3.296,3.666l0.011-0.016c-0.118,0.704-0.186,1.428-0.186,2.167c0,0.641,0.048,1.273,0.139,1.892
	l-0.006-0.009c0,0-0.916,1.382-3.371,3.594c0,0-0.275,0.12,1.336,2.971c1.609,2.85,1.848,2.674,1.848,2.674
	c3.124-1.032,4.762-1.133,4.762-1.133l-0.005-0.014c0.999,0.819,2.124,1.488,3.34,1.971h-0.09c0,0,0.728,1.494,1.398,4.754
	c0,0-0.035,0.301,3.205,0.301c3.236,0,3.203-0.301,3.203-0.301c0.615-2.981,1.274-4.483,1.384-4.717
	c1.169-0.451,2.249-1.075,3.224-1.838l-0.011,0.014c0,0,1.638,0.136,4.737,1.232c0,0,0.236,0.185,1.908-2.631
	c1.668-2.819,1.396-2.942,1.396-2.942c-2.409-2.263-3.295-3.665-3.295-3.665l-0.009,0.012c0.119-0.704,0.181-1.428,0.181-2.165
	c0-0.643-0.045-1.273-0.132-1.889l0.003,0.006c0,0,0.915-1.383,3.37-3.593C46.876,276.523,47.152,276.402,45.541,273.552
	 M30.964,287.823c-3.313,0-6-2.687-6-6s2.687-6,6-6s6,2.687,6,6S34.277,287.823,30.964,287.823"/>
<polygon fill="#FFFFFF" points="31,366 47,352 15,352 "/>
<path fill="#FFFFFF" d="M32.063,375.002C32.027,375.551,31.549,376,31,376c-0.55,0-1.028-0.449-1.063-0.998l-0.875-14.004
	C29.027,360.449,29.451,360,30,360H32c0.549,0,0.972,0.449,0.937,0.998L32.063,375.002z"/>
<path fill="#FFFFFF" d="M22.968,526.409c-1.787,0.004-2.204-0.396-2.204-0.396l-4.147,10.393l10.352-4.3c0,0-0.821-1.627-0.8-2.498
	C25.446,529.378,23.55,528.226,22.968,526.409"/>
<path fill="#FFFFFF" d="M30.525,515.573l-9.014,9.104c0,0,0.778,0.734,2.776,0.646c0.428,0.909,0.831,1.979,3.165,3.077
	c-0.094,1.902,0.823,2.973,0.823,2.973l9.019-9.097c-0.11-1.24-1.038-2.785-2.51-4.242C32.771,516.04,31.085,515.652,30.525,515.573
	"/>
<path fill="#FFFFFF" d="M32.959,513.437l-0.982,0.967c0,0,1.88,0.307,4.103,2.516c1.399,1.386,2.154,2.852,2.29,3.877l0.937-0.938
	c0,0,0.327-1.697-2.087-4.111C34.848,513.376,32.959,513.437,32.959,513.437"/>
<path fill="#FFFFFF" d="M34.898,511.165l-1.028,1.011c0,0,1.963,0.319,4.288,2.624c1.46,1.449,2.248,2.982,2.388,4.052l0.981-0.979
	c0,0,0.341-1.771-2.18-4.293C36.869,511.104,34.898,511.165,34.898,511.165"/>
<path fill="#FFFFFF" d="M43.565,509.063c-2.646-2.169-4.476-1.534-5.408-0.635c-0.323,0.313-1.347,1.138-2.096,1.738
	c0.844,0.053,2.536,0.418,4.397,2.257c1.849,1.83,2.202,3.397,2.222,4.271c0.63-0.813,1.616-2.086,1.769-2.241
	C45.469,513.416,46.212,511.231,43.565,509.063"/>
<rect x="15.5" y="586.5" fill="#FFFFFF" width="9" height="9"/>
<rect x="26.5" y="586.5" fill="#FFFFFF" width="9" height="9"/>
<rect x="37.5" y="586.5" fill="#FFFFFF" width="9" height="9"/>
<rect x="15.5" y="597.5" fill="#FFFFFF" width="9" height="9"/>
<rect x="26.5" y="597.5" fill="#FFFFFF" width="9" height="9"/>
<rect x="37.5" y="597.5" fill="#FFFFFF" width="9" height="9"/>
<rect x="15.5" y="608.5" fill="#FFFFFF" width="9" height="9"/>
<rect x="10.965" y="680.821" transform="matrix(-0.7071 0.7071 -0.7071 -0.7071 535.1584 1142.3354)" fill="#FFFFFF" width="40.068" height="2.357"/>
<rect x="10.966" y="680.821" transform="matrix(0.7071 0.7071 -0.7071 0.7071 491.3264 177.8332)" fill="#FFFFFF" width="40.068" height="2.357"/>
<rect x="37" y="756.5" fill="#FFFFFF" width="8" height="8"/>
<rect x="27" y="756.5" fill="#FFFFFF" width="8" height="8"/>
<rect x="17" y="756.5" fill="#FFFFFF" width="8" height="8"/>
<rect x="37" y="766.5" fill="#FFFFFF" width="8" height="8"/>
<rect x="27" y="766.5" fill="#FFFFFF" width="8" height="8"/>
<rect x="17" y="766.5" fill="#FFFFFF" width="8" height="8"/>
<rect x="37" y="776.5" fill="#FFFFFF" width="8" height="8"/>
<rect x="27" y="776.5" fill="#FFFFFF" width="8" height="8"/>
<rect x="17" y="776.5" fill="#FFFFFF" width="8" height="8"/>
<path fill="#FFFFFF" d="M44,1013.5h-6v-6h6V1013.5z M45,1006.5h-8v8h8V1006.5z"/>
<path fill="#FFFFFF" d="M34,1013.5h-6v-6h6V1013.5z M35,1006.5h-8v8h8V1006.5z"/>
<path fill="#FFFFFF" d="M24,1013.5h-6v-6h6V1013.5z M25,1006.5h-8v8h8V1006.5z"/>
<path fill="#FFFFFF" d="M44,1023.5h-6v-6h6V1023.5z M45,1016.5h-8v8h8V1016.5z"/>
<path fill="#FFFFFF" d="M34,1023.5h-6v-6h6V1023.5z M35,1016.5h-8v8h8V1016.5z"/>
<path fill="#FFFFFF" d="M24,1023.5h-6v-6h6V1023.5z M25,1016.5h-8v8h8V1016.5z"/>
<path fill="#FFFFFF" d="M44,1033.5h-6v-6h6V1033.5z M45,1026.5h-8v8h8V1026.5z"/>
<path fill="#FFFFFF" d="M34,1033.5h-6v-6h6V1033.5z M35,1026.5h-8v8h8V1026.5z"/>
<path fill="#FFFFFF" d="M24,1033.5h-6v-6h6V1033.5z M25,1026.5h-8v8h8V1026.5z"/>
<polygon fill="#FFFFFF" points="48,851.5 34,851.5 34,837.5 28,837.5 28,851.5 14,851.5 14,857.5 28,857.5 28,871.5 34,871.5 
	34,857.5 48,857.5 "/>
<rect x="23" y="928.5" fill="#FFFFFF" width="25" height="6"/>
<rect x="23" y="937.5" fill="#FFFFFF" width="25" height="6"/>
<rect x="23" y="946.5" fill="#FFFFFF" width="25" height="6"/>
<path fill="#FFFFFF" d="M20,931.5c0,1.657-1.343,3-3,3s-3-1.343-3-3s1.343-3,3-3S20,929.843,20,931.5"/>
<path fill="#FFFFFF" d="M20,940.5c0,1.657-1.343,3-3,3s-3-1.343-3-3s1.343-3,3-3S20,938.843,20,940.5"/>
<path fill="#FFFFFF" d="M20,949.5c0,1.657-1.343,3-3,3s-3-1.343-3-3s1.343-3,3-3S20,947.843,20,949.5"/>
<polygon fill="#FFFFFF" points="41.75,1092.25 41.75,1095.25 46.75,1095.25 46.75,1116.25 25.75,1116.25 25.75,1111.25 
	22.75,1111.25 22.75,1119.25 49.75,1119.25 49.75,1092.25 "/>
<rect x="14.25" y="1083.749" fill="none" stroke="#FFFFFF" stroke-width="3" stroke-miterlimit="10" width="24" height="24.001"/>
<path fill="#FFFFFF" d="M26.25,1165.5c5.522,0,10,4.479,10,10c0,5.522-4.478,10-10,10c-5.523,0-10-4.478-10-10
	C16.25,1169.979,20.727,1165.5,26.25,1165.5 M26.25,1162.5c-7.168,0-13,5.832-13,13s5.832,13,13,13s13-5.832,13-13
	S33.418,1162.5,26.25,1162.5"/>
<path fill="#FFFFFF" d="M36.877,1182.963c-0.772,1.097-1.711,2.063-2.778,2.875l11.075,11.076l2.826-2.828L36.877,1182.963z"/>
<polygon fill="#FFFFFF" points="46.282,1263.625 41.063,1251.831 46.02,1254.523 50.814,1251.551 "/>
<path fill="#FFFFFF" d="M16.968,1254.65c2.801-6.842,10.306-10.747,17.651-8.831c5.283,1.378,9.404,5.524,10.756,10.821l3.875-0.989
	c-1.711-6.707-6.93-11.957-13.621-13.702c-9.483-2.474-19.193,2.703-22.572,11.681L16.968,1254.65z"/>
<polygon fill="#FFFFFF" points="15.384,1257.043 20.603,1268.837 15.646,1266.145 10.852,1269.117 "/>
<path fill="#FFFFFF" d="M44.698,1266.018c-2.801,6.842-10.306,10.747-17.651,8.83c-5.283-1.377-9.404-5.523-10.756-10.82
	l-3.875,0.989c1.711,6.706,6.93,11.957,13.621,13.702c9.483,2.474,19.193-2.703,22.572-11.68L44.698,1266.018z"/>
<path fill="#FFFFFF" d="M37.037,1341.521l-0.475,2.426H25.664c0.516,1.992,1.371,3.563,2.566,4.711
	c1.36,1.313,3.059,1.969,5.098,1.969c2.191,0,4.09-0.539,5.695-1.617h0.246v3.393c-1.992,0.82-3.978,1.23-5.959,1.23
	c-3.21,0-5.812-0.926-7.804-2.777c-1.805-1.676-2.994-3.979-3.569-6.908h-2.004l0.493-2.426h1.213
	c-0.036-0.469-0.053-0.943-0.053-1.424c0-0.34,0.006-0.674,0.017-1.002h-1.67l0.493-2.426h1.459c0.539-3.07,1.752-5.496,3.638-7.277
	c2.039-1.922,4.653-2.883,7.84-2.883c2.086,0,4.055,0.416,5.906,1.248v3.428h-0.281c-1.652-1.137-3.539-1.705-5.66-1.705
	c-2.156,0-3.926,0.721-5.309,2.162c-1.183,1.242-2.003,2.918-2.461,5.027h12.463l-0.474,2.426H25.242
	c-0.023,0.328-0.035,0.662-0.035,1.002c0,0.48,0.017,0.955,0.053,1.424H37.037z"/>
<path fill="#FFFFFF" d="M39.425,1425.479c0,1.723-0.659,3.203-1.977,4.439c-1.319,1.236-2.98,1.977-4.984,2.223v6.363H30.46v-6.275
	c-1.265-0.012-2.54-0.158-3.823-0.439c-1.283-0.281-2.399-0.656-3.348-1.125v-3.551h0.263c0.926,0.691,1.969,1.254,3.129,1.688
	c1.16,0.434,2.42,0.709,3.779,0.826v-7.594c-0.293-0.07-0.65-0.154-1.072-0.254c-0.422-0.1-0.779-0.198-1.072-0.291
	c-1.758-0.48-3.015-1.207-3.771-2.18c-0.755-0.973-1.133-2.168-1.133-3.586c0-1.664,0.65-3.111,1.951-4.342
	c1.301-1.23,3-1.945,5.097-2.145v-4.781h2.004v4.746c1.067,0.035,2.171,0.186,3.314,0.449c1.142,0.264,2.077,0.553,2.804,0.869
	v3.479h-0.264c-0.82-0.562-1.72-1.054-2.698-1.476c-0.979-0.422-2.031-0.68-3.156-0.774v7.56c0.387,0.082,0.747,0.168,1.081,0.256
	s0.624,0.16,0.871,0.219c1.593,0.375,2.827,1.025,3.7,1.951C38.989,1422.66,39.425,1423.908,39.425,1425.479 M30.46,1419.045v-7.277
	c-1.054,0.094-1.939,0.438-2.654,1.029c-0.715,0.592-1.072,1.414-1.072,2.469c0,1.043,0.261,1.85,0.782,2.418
	C28.039,1418.252,29.02,1418.705,30.46,1419.045 M36.104,1425.936c0-1.102-0.281-1.916-0.844-2.443
	c-0.562-0.527-1.494-0.926-2.795-1.195v7.295c1.196-0.141,2.101-0.5,2.716-1.08C35.795,1427.932,36.104,1427.072,36.104,1425.936"/>
<path fill="#FFFFFF" d="M21.087,1595.943h-6.609c-1.366,0-2.479-1.11-2.479-2.478v-6.608c0-1.367,1.113-2.478,2.479-2.478h6.609
	c1.367,0,2.478,1.11,2.478,2.478v6.608C23.565,1594.833,22.455,1595.943,21.087,1595.943 M14.479,1586.031
	c-0.456,0-0.826,0.37-0.826,0.826v6.608c0,0.455,0.37,0.825,0.826,0.825h6.609c0.455,0,0.825-0.37,0.825-0.825v-6.608
	c0-0.456-0.37-0.826-0.825-0.826H14.479z"/>
<path fill="#FFFFFF" d="M45.87,1576.943H18.608c-2.277,0-4.13,1.854-4.13,4.131v3.306h1.652v-3.306c0-1.366,1.112-2.479,2.478-2.479
	H45.87c1.366,0,2.478,1.113,2.478,2.479v18.175c0,1.366-1.112,2.478-2.478,2.478H18.608c-1.366,0-2.478-1.111-2.478-2.478v-3.306
	h-1.652v3.306c0,2.276,1.853,4.131,4.13,4.131H45.87c2.276,0,4.13-1.854,4.13-4.131v-18.175
	C50,1578.798,48.146,1576.943,45.87,1576.943"/>
<path fill="#FFFFFF" d="M21.088,1590.161c0,0.912-0.74,1.652-1.653,1.652c-0.912,0-1.653-0.74-1.653-1.652s0.741-1.652,1.653-1.652
	C20.348,1588.509,21.088,1589.249,21.088,1590.161"/>
<path fill="#FFFFFF" d="M21.255,1506.503h2.697v-13.639h6.687c3.154,0,5.243,0.494,6.915,1.67c1.975,1.369,3.191,3.42,3.191,6.346
	c0,2.318-0.873,4.445-2.356,5.927c-1.823,1.824-4.103,2.736-7.902,2.736h-3.002v2.317h11.931v3.039H27.485v4.56h-3.533v-4.56h-2.697
	v-3.039h2.697v-2.317h-2.697V1506.503z M35.16,1496.929c-1.14-0.76-2.508-1.025-4.749-1.025h-2.926v10.638h2.394
	c2.887,0,4.483-0.38,5.661-1.595c1.064-1.064,1.52-2.28,1.52-3.953C37.06,1499.17,36.452,1497.765,35.16,1496.929"/>
<path fill="#FFFFFF" d="M17.68,1682.901c-1.055,0-1.951-0.108-2.69-0.326c-0.74-0.219-1.434-0.487-2.085-0.807v-2.422h0.136
	c0.638,0.6,1.361,1.063,2.168,1.393c0.808,0.328,1.585,0.492,2.334,0.492c1.068,0,1.875-0.223,2.422-0.668
	c0.547-0.447,0.82-1.035,0.82-1.764c0-0.579-0.143-1.051-0.429-1.416c-0.286-0.363-0.742-0.634-1.367-0.811
	c-0.45-0.129-0.86-0.237-1.231-0.321c-0.371-0.085-0.837-0.199-1.396-0.342c-0.501-0.132-0.951-0.298-1.348-0.498
	c-0.397-0.202-0.749-0.466-1.055-0.791c-0.3-0.319-0.532-0.695-0.698-1.128c-0.166-0.434-0.249-0.934-0.249-1.499
	c0-1.179,0.459-2.167,1.377-2.964s2.09-1.196,3.516-1.196c0.813,0,1.584,0.081,2.309,0.244c0.726,0.161,1.399,0.394,2.017,0.692
	v2.315h-0.147c-0.462-0.424-1.054-0.793-1.777-1.108c-0.723-0.316-1.481-0.474-2.275-0.474c-0.899,0-1.624,0.21-2.178,0.629
	c-0.554,0.42-0.83,0.972-0.83,1.656c0,0.618,0.163,1.11,0.488,1.474c0.325,0.365,0.798,0.633,1.416,0.801
	c0.41,0.111,0.911,0.236,1.504,0.377c0.593,0.14,1.084,0.269,1.475,0.385c1.002,0.307,1.735,0.769,2.197,1.388
	c0.462,0.618,0.693,1.38,0.693,2.285c0,0.565-0.115,1.126-0.346,1.679c-0.232,0.555-0.555,1.021-0.972,1.407
	c-0.469,0.423-0.998,0.748-1.587,0.976C19.303,1682.788,18.565,1682.901,17.68,1682.901"/>
<polygon fill="#FFFFFF" points="37.23,1682.638 35.296,1682.638 35.296,1670.109 31.507,1678.634 30.335,1678.634 26.577,1670.109 
	26.577,1682.638 24.77,1682.638 24.77,1668.097 27.406,1668.097 31.04,1676.193 34.544,1668.097 37.23,1668.097 "/>
<path fill="#FFFFFF" d="M44.232,1682.901c-1.055,0-1.951-0.108-2.69-0.326c-0.74-0.219-1.434-0.487-2.085-0.807v-2.422h0.136
	c0.638,0.6,1.361,1.063,2.168,1.393c0.808,0.328,1.585,0.492,2.334,0.492c1.068,0,1.875-0.223,2.422-0.668
	c0.547-0.447,0.82-1.035,0.82-1.764c0-0.579-0.143-1.051-0.429-1.416c-0.286-0.363-0.742-0.634-1.367-0.811
	c-0.45-0.129-0.86-0.237-1.231-0.321c-0.371-0.085-0.837-0.199-1.396-0.342c-0.501-0.132-0.951-0.298-1.348-0.498
	c-0.397-0.202-0.749-0.466-1.055-0.791c-0.3-0.319-0.532-0.695-0.698-1.128c-0.166-0.434-0.249-0.934-0.249-1.499
	c0-1.179,0.459-2.167,1.377-2.964s2.09-1.196,3.516-1.196c0.813,0,1.584,0.081,2.309,0.244c0.726,0.161,1.399,0.394,2.017,0.692
	v2.315h-0.147c-0.462-0.424-1.054-0.793-1.777-1.108c-0.723-0.316-1.481-0.474-2.275-0.474c-0.899,0-1.624,0.21-2.178,0.629
	c-0.554,0.42-0.83,0.972-0.83,1.656c0,0.618,0.163,1.11,0.488,1.474c0.325,0.365,0.798,0.633,1.416,0.801
	c0.41,0.111,0.911,0.236,1.504,0.377c0.593,0.14,1.084,0.269,1.475,0.385c1.002,0.307,1.735,0.769,2.197,1.388
	c0.462,0.618,0.693,1.38,0.693,2.285c0,0.565-0.115,1.126-0.346,1.679c-0.232,0.555-0.555,1.021-0.972,1.407
	c-0.469,0.423-0.998,0.748-1.587,0.976C45.855,1682.788,45.118,1682.901,44.232,1682.901"/>
<polygon fill="#FFFFFF" points="21.571,1763.638 19.403,1763.638 12.977,1751.099 12.977,1763.638 11.171,1763.638 11.171,1749.097 
	13.915,1749.097 19.764,1760.611 19.764,1749.097 21.571,1749.097 "/>
<polygon fill="#FFFFFF" points="24.521,1763.638 24.521,1749.097 33.612,1749.097 33.612,1750.816 26.455,1750.816 26.455,1754.8 
	33.125,1754.8 33.125,1756.519 26.455,1756.519 26.455,1761.919 33.612,1761.919 33.612,1763.638 "/>
<polygon fill="#FFFFFF" points="52.05,1749.097 48.398,1763.638 46.22,1763.638 43.261,1751.568 40.37,1763.638 38.241,1763.638 
	34.521,1749.097 36.503,1749.097 39.433,1761.187 42.343,1749.097 44.306,1749.097 47.245,1761.304 50.155,1749.097 "/>
<path fill="none" stroke="#FFFFFF" stroke-width="2" stroke-miterlimit="10" d="M50.165,1846.573c0,2.2-1.8,4-4,4h-28
	c-2.2,0-4-1.8-4-4v-17.116c0-2.2,1.8-4,4-4h28c2.2,0,4,1.8,4,4V1846.573z"/>
<path fill="#EAEAEA" d="M33.84,1838.015c0,0.926-0.75,1.675-1.675,1.675c-0.925,0-1.675-0.749-1.675-1.675
	c0-0.924,0.75-1.674,1.675-1.674C33.09,1836.341,33.84,1837.091,33.84,1838.015"/>
<path fill="#FFFFFF" d="M25.405,1824.62v-3.364c0-0.488,0.396-0.884,0.884-0.884h11.752c0.487,0,0.884,0.396,0.884,0.884v3.364
	h1.549v-3.364c0-1.343-1.09-2.435-2.433-2.435H26.289c-1.343,0-2.434,1.092-2.434,2.435v3.364H25.405z"/>
<rect x="14.165" y="1832.154" fill="#FFFFFF" width="36" height="1.675"/>
<path fill="#FFFFFF" d="M35.216,1910.604v17.084c0,1.521,0.176,2.494,0.531,2.916c0.353,0.424,1.044,0.666,2.073,0.726v0.831H26.179
	v-0.831c0.953-0.03,1.659-0.308,2.12-0.829c0.308-0.354,0.461-1.291,0.461-2.813v-12.588c0-1.522-0.176-2.493-0.53-2.918
	c-0.354-0.421-1.037-0.664-2.051-0.725v-0.854H35.216z M31.989,1900.161c0.999,0,1.844,0.35,2.535,1.049
	c0.692,0.698,1.038,1.541,1.038,2.524c0,0.984-0.35,1.821-1.049,2.513c-0.701,0.691-1.542,1.036-2.524,1.036
	c-0.983,0-1.822-0.345-2.514-1.036c-0.691-0.691-1.038-1.528-1.038-2.513c0-0.983,0.347-1.826,1.038-2.524
	C30.167,1900.511,31.006,1900.161,31.989,1900.161"/>
<path fill="#FFFFFF" d="M48.953,1990.592c0.151,0.492-0.07,1.071-0.518,1.319c-2.722,1.57-5.434,3.142-8.156,4.713
	c-0.51,0.322-1.266,0.125-1.57-0.402c-0.483-0.82-0.955-1.649-1.428-2.479c-0.312-0.519-0.099-1.276,0.445-1.554
	c2.712-1.57,5.426-3.141,8.139-4.701c0.526-0.33,1.293-0.117,1.588,0.436C47.943,1988.816,48.506,1989.682,48.953,1990.592"/>
<path fill="none" stroke="#FFFFFF" stroke-width="0.094" stroke-miterlimit="10" d="M48.953,1990.592
	c0.151,0.492-0.07,1.071-0.518,1.319c-2.722,1.57-5.434,3.142-8.156,4.713c-0.51,0.322-1.266,0.125-1.57-0.402
	c-0.483-0.82-0.955-1.649-1.428-2.479c-0.312-0.519-0.099-1.276,0.445-1.554c2.712-1.57,5.426-3.141,8.139-4.701
	c0.526-0.33,1.293-0.117,1.588,0.436C47.943,1988.816,48.506,1989.682,48.953,1990.592z"/>
<path fill="#FFFFFF" d="M43.876,1984.006c0.775,0.758,1.32,1.704,1.865,2.633c-2.901,1.677-5.802,3.346-8.701,5.024
	c-0.437-0.75-1.213-1.258-2.054-1.455c-1.525-0.365-3.113-0.018-4.586,0.446c-2.205,0.776-4.254,1.99-5.888,3.668
	c-0.858,0.901-1.607,1.999-1.785,3.266c-0.108,0.724,0.062,1.463,0.41,2.104c-2.901,1.671-5.801,3.348-8.701,5.016
	c-0.652-1.15-1.32-2.364-1.416-3.723c-0.092-0.953,0.15-1.917,0.586-2.756c0.527-1.105,1.312-2.062,2.071-3.006
	c1.436-1.67,3.07-3.142,4.809-4.481c2.651-2.024,5.535-3.764,8.558-5.185c2.615-1.213,5.355-2.194,8.192-2.693
	c1.214-0.17,2.436-0.358,3.659-0.215C42.001,1982.73,43.09,1983.212,43.876,1984.006"/>
<path fill="none" stroke="#FFFFFF" stroke-width="0.094" stroke-miterlimit="10" d="M43.876,1984.006
	c0.775,0.758,1.32,1.704,1.865,2.633c-2.901,1.677-5.802,3.346-8.701,5.024c-0.437-0.75-1.213-1.258-2.054-1.455
	c-1.525-0.365-3.113-0.018-4.586,0.446c-2.205,0.776-4.254,1.99-5.888,3.668c-0.858,0.901-1.607,1.999-1.785,3.266
	c-0.108,0.724,0.062,1.463,0.41,2.104c-2.901,1.671-5.801,3.348-8.701,5.016c-0.652-1.15-1.32-2.364-1.416-3.723
	c-0.092-0.953,0.15-1.917,0.586-2.756c0.527-1.105,1.312-2.062,2.071-3.006c1.436-1.67,3.07-3.142,4.809-4.481
	c2.651-2.024,5.535-3.764,8.558-5.185c2.615-1.213,5.355-2.194,8.192-2.693c1.214-0.17,2.436-0.358,3.659-0.215
	C42.001,1982.73,43.09,1983.212,43.876,1984.006z"/>
<path fill="#FFFFFF" d="M26.493,2003.423c0.231,0.527-0.011,1.196-0.519,1.454c-2.676,1.554-5.363,3.099-8.041,4.651
	c-0.517,0.364-1.32,0.204-1.631-0.35c-0.492-0.83-0.965-1.659-1.447-2.498c-0.311-0.527-0.079-1.276,0.464-1.563
	c2.695-1.552,5.391-3.114,8.095-4.666c0.535-0.357,1.337-0.145,1.623,0.428C25.519,2001.729,26.038,2002.566,26.493,2003.423"/>
<path fill="none" stroke="#FFFFFF" stroke-width="0.094" stroke-miterlimit="10" d="M26.493,2003.423
	c0.231,0.527-0.011,1.196-0.519,1.454c-2.676,1.554-5.363,3.099-8.041,4.651c-0.517,0.364-1.32,0.204-1.631-0.35
	c-0.492-0.83-0.965-1.659-1.447-2.498c-0.311-0.527-0.079-1.276,0.464-1.563c2.695-1.552,5.391-3.114,8.095-4.666
	c0.535-0.357,1.337-0.145,1.623,0.428C25.519,2001.729,26.038,2002.566,26.493,2003.423z"/>
<path fill="#FFFFFF" d="M32.031,2146.08c5.687,0,11.057,0,13.334,2.341c1.175,1.207,1.707,3.208,1.627,6.119
	c-0.225,8.206-4.029,8.624-14.996,8.624h-0.02c-1.1,0-4.664-0.003-4.664-0.003l-5.427-0.578c-2.471-0.604-4.884-1.715-4.884-7.961
	c0-7.88,3.663-8.542,14.995-8.542H32.031 M32.031,2143.08h-0.035c-9.94,0-17.995,0-17.995,11.542c0,7.071,2.817,9.812,7.173,10.875
	l-5.131,7.745l12.698-7.085c1.061,0.007,2.141,0.007,3.255,0.007c9.937,0,17.679,0,17.995-11.542
	C50.307,2143.087,41.953,2143.08,32.031,2143.08"/>
<path fill="#FFFFFF" d="M48.557,2087.161H14.72v-22h33.837V2087.161z M48.557,2062.161H14.72c-1.657,0-3,1.343-3,3v22
	c0,1.657,1.343,3,3,3h33.837c1.657,0,3-1.343,3-3v-22C51.557,2063.504,50.213,2062.161,48.557,2062.161"/>
<line fill="none" stroke="#FFFFFF" stroke-width="2" stroke-linecap="square" stroke-miterlimit="10" x1="14.557" y1="2065.983" x2="31.296" y2="2076.755"/>
<line fill="none" stroke="#FFFFFF" stroke-width="2" stroke-linecap="square" stroke-miterlimit="10" x1="48.395" y1="2065.983" x2="31.655" y2="2076.755"/>
<path fill="#FFFFFF" d="M20.033,2252.515c-1.803,0-3.27-1.467-3.27-3.272c0-1.803,1.467-3.27,3.27-3.27
	c1.809,0,3.273,1.467,3.273,3.27C23.307,2251.048,21.842,2252.515,20.033,2252.515"/>
<path fill="#FFFFFF" d="M48.453,2237.404l-3.178-6.359c-0.301-0.602-1.096-1.09-1.768-1.09h-6.104c-0.67,0-1.219,0.549-1.219,1.219
	v8.541c0,0.67-0.549,1.221-1.221,1.221H14.221c-0.672,0-1.221,0.55-1.221,1.221v6.047c0,0.672,0.549,1.217,1.221,1.217h1.416
	c-0.004-0.06-0.02-0.117-0.02-0.178c0-2.438,1.979-4.417,4.42-4.417c2.438,0,4.416,1.979,4.416,4.417
	c0,0.061-0.016,0.118-0.016,0.178h13.127c-0.004-0.06-0.02-0.117-0.02-0.178c0-2.438,1.979-4.417,4.418-4.417
	c2.441,0,4.418,1.979,4.418,4.417c0,0.061-0.016,0.118-0.018,0.178h1.416c0.67,0,1.221-0.545,1.221-1.217v-8.488
	C49,2239.047,48.754,2238.004,48.453,2237.404 M38.018,2239.107v-7.325h5.49c0.008,0.011,0.119,0.08,0.154,0.125l3.154,6.315
	c0.102,0.207,0.207,0.553,0.275,0.885H38.018z"/>
<path fill="#FFFFFF" d="M41.963,2252.515c-1.807,0-3.271-1.467-3.271-3.272c0-1.803,1.465-3.27,3.271-3.27
	c1.805,0,3.27,1.467,3.27,3.27C45.232,2251.048,43.768,2252.515,41.963,2252.515"/>
<path fill="#FFFFFF" d="M19.547,2239.783v-11.298h-4.5c-1.066,0-1.932,0.862-1.932,1.929v9.369H19.547z"/>
<rect x="20.283" y="2228.484" fill="#FFFFFF" width="7.533" height="11.299"/>
<path fill="#FFFFFF" d="M34.982,2239.783v-9.369c0-1.066-0.865-1.929-1.93-1.929h-4.502v11.298H34.982z"/>
<polygon fill="#FFFFFF" points="35.357,2315.142 44.269,2315.142 44.357,2315.053 35.447,2306.143 35.357,2306.232 "/>
<path fill="#FFFFFF" d="M36.458,2308l6.042,6.042V2340h-22v-32H36.458z M37.428,2306H18.5v36h26v-28.93l-0.071,0.072l-7.071-7.071
	L37.428,2306z"/>
<path fill="#FFFFFF" d="M39.077,2400.115v17.309c0,2.791-1.688,8.076-8.077,8.076c-6.386,0-8.077-5.285-8.077-8.076v-16.154
	c0-0.146,0.021-1.465,0.701-2.825c0.948-1.897,2.749-2.944,5.068-2.944c2.321,0,4.124,1.047,5.07,2.944
	c0.679,1.358,0.699,2.677,0.699,2.825v15c0,1.391-0.92,3.462-3.462,3.462c-2.537,0-3.462-2.071-3.462-3.462v-10.385
	c0-0.637,0.518-1.153,1.154-1.153c0.638,0,1.153,0.517,1.153,1.153v10.385c0.014,0.517,0.226,1.154,1.154,1.154
	c0.931,0,1.142-0.637,1.154-1.166v-14.988c-0.005-0.572-0.203-3.463-3.462-3.463c-1.46,0-2.443,0.547-3.007,1.672
	c-0.435,0.869-0.455,1.783-0.455,1.791v16.154c0.005,0.586,0.205,5.769,5.77,5.769c5.706,0,5.77-5.535,5.77-5.769v-17.309
	c0-0.637,0.518-1.154,1.153-1.154C38.561,2398.961,39.077,2399.479,39.077,2400.115"/>
<path fill-rule="evenodd" clip-rule="evenodd" fill="#FFFFFF" d="M23.275,2489.48c0.921,3.955,4.38,8.057,7.755,8.057
	c3.38,0,6.845-4.11,7.761-8.07c0.693-0.135,1.178-0.494,1.178-1.305v-3.375c0-0.814-0.489-1.105-1.188-1.203
	c-0.003-0.017-0.009-0.031-0.013-0.047h0.013c0,0,0.751-3.063,0.501-3.625s-1.188-0.125-1.688-0.625s-0.875-1.875-1.438-2.25
	c-0.562-0.375-4.375-0.563-5.374-0.688c-1-0.125-4.375-1-5.063-0.875s-1,3.938-1.188,4.438s-1.063,0.625-1.438,1.063
	s0.188,2.563,0.188,2.563h0.014c-0.003,0.013-0.008,0.024-0.012,0.037c-0.733,0.088-1.252,0.373-1.252,1.213v3.375
	C22.031,2488.998,22.546,2489.355,23.275,2489.48 M46.969,2505.475c0,0-4.938-7.938-5.938-7.938H33.03h-1c0.554,0,1,0.449,1,1
	c0,0.553-0.446,1-1,1h-1.999c-0.553,0-1-0.447-1-1c0-0.551,0.447-1,1-1h-1h-8c-1.063,0-6,7.938-6,7.938h14v-1.938
	c0-1.104,0.896-3,1.999-3c1.105,0,2,1.896,2,3v1.938H46.969z"/>
<path fill="#FFFFFF" d="M46,2575.5c-2.76,0-5-2.238-5-5s2.24-5,5-5s5,2.238,5,5S48.76,2575.5,46,2575.5"/>
<path fill="#FFFFFF" d="M31,2575.5c-2.76,0-5-2.238-5-5s2.24-5,5-5s5,2.238,5,5S33.76,2575.5,31,2575.5"/>
<path fill="#FFFFFF" d="M16,2575.5c-2.76,0-5-2.238-5-5s2.24-5,5-5s5,2.238,5,5S18.76,2575.5,16,2575.5"/>
<path fill-rule="evenodd" clip-rule="evenodd" fill="#FFFFFF" d="M27,2641.5c0-2.209,1.791-4,4-4s4,1.791,4,4v7h2v-7
	c0-3.313-2.688-6-6-6c-3.313,0-6,2.688-6,6v7h2V2641.5z M39,2649.5H23c-1.104,0-2,0.896-2,2v12c0,1.104,0.896,2,2,2h16
	c1.104,0,2-0.896,2-2v-12C41,2650.396,40.104,2649.5,39,2649.5"/>
<path fill="#FFFFFF" d="M14.583,2733.463c-0.415,0-0.831-0.168-1.142-0.5c-0.605-0.646-0.586-1.674,0.046-2.295l10.527-10.351
	c6.173-6.071,6.189-6.071,6.985-6.071c0.781,0,0.811,0,6.995,6.057l10.516,10.295c0.632,0.619,0.655,1.646,0.051,2.295
	c-0.604,0.648-1.606,0.672-2.237,0.053l-10.516-10.295c-2.228-2.18-3.861-3.746-4.806-4.631c-0.969,0.912-2.642,2.521-4.797,4.641
	l-10.526,10.352C15.373,2733.313,14.979,2733.463,14.583,2733.463"/>
<path fill="#FFFFFF" d="M37.277,2725.6c-5.438-5.326-5.527-5.326-6.215-5.326c-0.701,0-0.871,0-6.301,5.34l-8.262,7.969v3.576v4.678
	V2745h11v-11h7v11h11v-4.787v-3.113v-3.572L37.277,2725.6z"/>
<path fill="none" stroke="#FFFFFF" stroke-width="2" stroke-miterlimit="10" d="M23,2828.036c-2.2,0-4-1.8-4-4v-18h24v18
	c0,2.2-1.8,4-4,4H23z"/>
<path fill="none" stroke="#FFFFFF" stroke-width="2" stroke-miterlimit="10" d="M17,2802.036v-3c0-0.55,0.45-1,1-1h26
	c0.55,0,1,0.45,1,1v3H17z"/>
<path fill="#FFFFFF" d="M24.24,2797.835v-3.365c0-0.486,0.396-0.883,0.884-0.883h11.752c0.487,0,0.884,0.396,0.884,0.883v3.365h1.55
	v-3.365c0-1.342-1.091-2.434-2.434-2.434H25.124c-1.343,0-2.434,1.092-2.434,2.434v3.365H24.24z"/>
<rect x="24.033" y="2809.036" fill="#FFFFFF" width="1.674" height="16"/>
<rect x="30.163" y="2809.036" fill="#FFFFFF" width="1.674" height="16"/>
<rect x="37.033" y="2809.036" fill="#FFFFFF" width="1.674" height="16"/>
<polygon fill="#FFFFFF" points="35.357,2892.142 44.269,2892.142 44.357,2892.053 35.447,2883.143 35.357,2883.232 "/>
<path fill="none" d="M62,3391.5c0,17.121-13.879,31-31,31s-31-13.879-31-31s13.879-31,31-31S62,3374.379,62,3391.5"/>
<polygon fill="#FFFFFF" points="35.357,2976.142 44.269,2976.142 44.357,2976.053 35.447,2967.143 35.357,2967.232 "/>
<path fill="#FFFFFF" d="M36.458,2969l6.042,6.042V3001h-22v-32H36.458z M37.428,2967H18.5v36h26v-28.93l-0.071,0.072l-7.071-7.071
	L37.428,2967z"/>
<path fill="#FFFFFF" d="M36.458,2885l6.042,6.042V2917h-22v-32H36.458z M37.428,2883H18.5v36h26v-28.93l-0.071,0.072l-7.071-7.071
	L37.428,2883z"/>
<text transform="matrix(1 0 0 1 26.104 2992.334)" fill="#FFFFFF" font-family="'Tahoma'" font-size="18">A</text>
<polygon fill="#FFFFFF" points="35.357,3063.142 44.269,3063.142 44.357,3063.053 35.447,3054.143 35.357,3054.232 "/>
<path fill="#FFFFFF" d="M36.458,3056l6.042,6.042V3088h-22v-32H36.458z M37.428,3054H18.5v36h26v-28.93l-0.071,0.072l-7.071-7.071
	L37.428,3054z"/>
<text transform="matrix(1 0 0 1 25.4243 3079.334)" fill="#FFFFFF" font-family="'Tahoma'" font-size="18">Н</text>
<polygon fill="#FFFFFF" points="35.357,3142.142 44.269,3142.142 44.357,3142.053 35.447,3133.143 35.357,3133.232 "/>
<path fill="#FFFFFF" d="M36.458,3135l6.042,6.042V3167h-22v-32H36.458z M37.428,3133H18.5v36h26v-28.93l-0.071,0.072l-7.071-7.072
	L37.428,3133z"/>
<text transform="matrix(1 0 0 1 25.3481 3158.334)" fill="#FFFFFF" font-family="'Tahoma'" font-size="18">Д</text>
<polygon fill="#FFFFFF" points="35.357,3302.142 44.269,3302.142 44.357,3302.053 35.447,3293.143 35.357,3293.232 "/>
<polygon fill="#FFFFFF" points="42.116,3385.5 48,3379.617 48,3379.5 36.235,3379.5 36.235,3379.618 "/>
<path fill="#FFFFFF" d="M36.458,3295l6.042,6.041V3327h-22v-32H36.458z M37.428,3293H18.5v36h26v-28.93l-0.071,0.071l-7.071-7.071
	L37.428,3293z"/>
<text transform="matrix(1 0 0 1 26.2739 3318.334)" fill="#FFFFFF" font-family="'Tahoma'" font-size="18">X</text>
<polygon fill="#FFFFFF" points="35.357,3222.142 44.269,3222.142 44.357,3222.053 35.447,3213.143 35.357,3213.232 "/>
<path fill="#FFFFFF" d="M36.458,3215l6.042,6.042V3247h-22v-32H36.458z M37.428,3213H18.5v36h26v-28.93l-0.071,0.072l-7.071-7.072
	L37.428,3213z"/>
<text transform="matrix(1 0 0 1 21.4985 3239)"><tspan x="0" y="0" fill="#FFFFFF" font-family="'HelveticaNeue-Medium'" font-size="18" letter-spacing="-1">1</tspan><tspan x="7.901" y="0" fill="#FFFFFF" font-family="'HelveticaNeue-Medium'" font-size="18">2</tspan></text>
<path fill="#FFFFFF" d="M26.789,2906.5c-0.75,0-1.359-0.609-1.359-1.361c0-0.75,0.609-1.361,1.359-1.361
	c0.754,0,1.362,0.611,1.362,1.361C28.151,2905.891,27.543,2906.5,26.789,2906.5"/>
<path fill="#FFFFFF" d="M38.617,2900.212l-1.322-2.647c-0.125-0.25-0.457-0.453-0.735-0.453h-2.542
	c-0.277,0-0.507,0.229-0.507,0.508v3.554c0,0.279-0.228,0.509-0.508,0.509H24.37c-0.278,0-0.508,0.229-0.508,0.508v2.517
	c0,0.278,0.229,0.506,0.508,0.506h0.591c-0.003-0.024-0.01-0.049-0.01-0.074c0-1.015,0.824-1.838,1.84-1.838
	s1.838,0.823,1.838,1.838c0,0.025-0.006,0.05-0.006,0.074h5.463c-0.002-0.024-0.01-0.049-0.01-0.074
	c0-1.015,0.825-1.838,1.841-1.838s1.836,0.823,1.836,1.838c0,0.025-0.005,0.05-0.005,0.074h0.588c0.279,0,0.509-0.228,0.509-0.506
	v-3.533C38.845,2900.896,38.742,2900.461,38.617,2900.212 M34.274,2900.92v-3.048h2.285c0.003,0.004,0.049,0.032,0.063,0.052
	l1.313,2.628c0.042,0.086,0.085,0.23,0.114,0.368H34.274z"/>
<path fill="#FFFFFF" d="M35.917,2906.5c-0.752,0-1.362-0.609-1.362-1.361c0-0.75,0.61-1.361,1.362-1.361
	c0.75,0,1.36,0.611,1.36,1.361C37.277,2905.891,36.667,2906.5,35.917,2906.5"/>
<path fill="#FFFFFF" d="M26.587,2901.202v-4.702h-1.873c-0.442,0-0.804,0.359-0.804,0.803v3.899H26.587z"/>
<rect x="26.894" y="2896.5" fill="#FFFFFF" width="3.136" height="4.702"/>
<path fill="#FFFFFF" d="M33.012,2901.202v-3.899c0-0.443-0.361-0.803-0.805-0.803h-1.873v4.702H33.012z"/>
<rect x="14" y="3379.5" fill="#FFFFFF" width="20" height="6"/>
<rect x="14" y="3391.5" fill="#FFFFFF" width="34" height="2"/>
<rect x="14" y="3399.5" fill="#FFFFFF" width="34" height="2"/>
<path fill="none" d="M62,3472.5c0,17.121-13.879,31-31,31s-31-13.879-31-31s13.879-31,31-31S62,3455.379,62,3472.5"/>
<text transform="matrix(1 0 0 1 14 3484)" fill="#FFFFFF" font-family="'Tahoma'" font-size="28">№</text>
</svg>
