<?xml version="1.0" encoding="utf-8"?>
<!-- Generator: Adobe Illustrator 15.0.0, SVG Export Plug-In . SVG Version: 6.00 Build 0)  -->
<!DOCTYPE svg PUBLIC "-//W3C//DTD SVG 1.1//EN" "http://www.w3.org/Graphics/SVG/1.1/DTD/svg11.dtd">
<svg version="1.1" id="Шар_1" xmlns="http://www.w3.org/2000/svg" xmlns:xlink="http://www.w3.org/1999/xlink" x="0px" y="0px"
	 width="61.99px" height="55.75px" viewBox="0 0 61.99 55.75" enable-background="new 0 0 61.99 55.75" xml:space="preserve">
<path fill="#018BBD" d="M45.5,34.25c-2.76,0-5-2.238-5-5c0-2.762,2.24-5,5-5s5,2.238,5,5C50.5,32.012,48.26,34.25,45.5,34.25"/>
<path fill="#018BBD" d="M30.5,34.25c-2.76,0-5-2.238-5-5c0-2.762,2.24-5,5-5s5,2.238,5,5C35.5,32.012,33.26,34.25,30.5,34.25"/>
<path fill="#018BBD" d="M15.5,34.25c-2.76,0-5-2.238-5-5c0-2.762,2.24-5,5-5s5,2.238,5,5C20.5,32.012,18.26,34.25,15.5,34.25"/>
</svg>
